<?xml version="1.0" encoding="iso-8859-1"?>
<!-- Generator: Adobe Illustrator 19.0.0, SVG Export Plug-In . SVG Version: 6.00 Build 0)  -->
<svg version="1.1" id="Layer_1" xmlns="http://www.w3.org/2000/svg" xmlns:xlink="http://www.w3.org/1999/xlink" x="0px" y="0px"
	 viewBox="0 0 512 512" style="enable-background:new 0 0 512 512;" xml:space="preserve">
<path style="fill:#9CAC74;" d="M462.353,474.112L435.965,50.311l-33.758-22.505L392.98,512h33.758
	C447.623,512,463.647,494.952,462.353,474.112z"/>
<rect x="123.386" y="339.934" style="fill:#594B44;" width="231.469" height="149.56"/>
<g>
	<rect x="332.35" y="339.934" style="fill:#4D3D36;" width="56.264" height="149.56"/>
	<rect x="134.639" y="481.055" style="fill:#4D3D36;" width="242.722" height="16.879"/>
</g>
<path style="fill:#BCC987;" d="M428.595,474.112c1.294,20.84-14.73,37.888-35.615,37.888h-26.872V362.44H145.892V512H85.251
	c-20.874,0-36.898-17.048-35.604-37.888L76.024,50.311l163.092-27.007l163.092,27.007L428.595,474.112z"/>
<path style="fill:#555843;" d="M429.281,0h-33.758l12.648,50.311h33.758V12.659C441.929,5.671,436.269,0,429.281,0z"/>
<g>
	<path style="fill:#5D734F;" d="M408.171,12.659v37.652L395.523,0C402.511,0,408.171,5.671,408.171,12.659z"/>
	<path style="fill:#5D734F;" d="M395.523,0l12.648,50.311H70.06V12.659C70.06,5.671,75.731,0,82.719,0H395.523z"/>
</g>
<polygon style="fill:#555843;" points="366.108,122.835 366.108,328.682 332.35,328.682 276.086,225.758 332.35,122.835 "/>
<rect x="145.892" y="122.835" style="fill:#5D734F;" width="186.458" height="205.847"/>
<path style="fill:#BCC987;" d="M301.822,160.8h-91.641c-4.572,0-8.279,3.707-8.279,8.279v24.629h108.199v-24.629
	C310.1,164.505,306.393,160.8,301.822,160.8z"/>
<g>
	<path style="fill:#4D3D36;" d="M282.049,92.51h-52.102c-4.662,0-8.44-3.779-8.44-8.44c0-4.661,3.778-8.44,8.44-8.44h52.102
		c4.662,0,8.44,3.779,8.44,8.44C290.489,88.731,286.711,92.51,282.049,92.51z"/>
	<path style="fill:#4D3D36;" d="M210.342,303.365c-4.662,0-8.44-3.779-8.44-8.44v-29.908c0-4.661,3.778-8.44,8.44-8.44
		c4.662,0,8.44,3.779,8.44,8.44v29.908C218.782,299.586,215.003,303.365,210.342,303.365z"/>
	<path style="fill:#4D3D36;" d="M255.998,303.365c-4.662,0-8.44-3.779-8.44-8.44v-29.908c0-4.661,3.778-8.44,8.44-8.44
		c4.662,0,8.44,3.779,8.44,8.44v29.908C264.437,299.586,260.66,303.365,255.998,303.365z"/>
	<path style="fill:#4D3D36;" d="M301.66,303.365c-4.662,0-8.44-3.779-8.44-8.44v-29.908c0-4.661,3.778-8.44,8.44-8.44
		s8.44,3.779,8.44,8.44v29.908C310.1,299.586,306.322,303.365,301.66,303.365z"/>
</g>
<g>
</g>
<g>
</g>
<g>
</g>
<g>
</g>
<g>
</g>
<g>
</g>
<g>
</g>
<g>
</g>
<g>
</g>
<g>
</g>
<g>
</g>
<g>
</g>
<g>
</g>
<g>
</g>
<g>
</g>
</svg>
