<?xml version="1.0" encoding="iso-8859-1"?>
<!-- Generator: Adobe Illustrator 19.0.0, SVG Export Plug-In . SVG Version: 6.00 Build 0)  -->
<svg version="1.1" id="Layer_1" xmlns="http://www.w3.org/2000/svg" xmlns:xlink="http://www.w3.org/1999/xlink" x="0px" y="0px"
	 viewBox="0 0 512.001 512.001" style="enable-background:new 0 0 512.001 512.001;" xml:space="preserve">
<path style="fill:#555843;" d="M68.06,334.998v136.119c37.583,0,68.06-30.476,68.06-68.06
	C136.119,365.463,105.643,334.998,68.06,334.998z"/>
<path style="fill:#5D734F;" d="M68.06,334.998c25.362,0,45.919,30.465,45.919,68.06c0,37.583-20.557,68.06-45.919,68.06
	c-37.583,0-68.06-30.476-68.06-68.06C0,365.463,30.476,334.998,68.06,334.998z"/>
<path style="fill:#BCC987;" d="M68.525,368.219v69.676c19.008-0.244,34.384-15.775,34.384-34.838S87.532,368.463,68.525,368.219z"/>
<path style="fill:#D4ED85;" d="M68.525,368.219c9.853,0.476,17.779,15.919,17.779,34.838s-7.926,34.362-17.779,34.838
	c-0.155,0.011-0.31,0.011-0.465,0.011c-19.218,0-34.849-15.631-34.849-34.849c0-19.218,15.631-34.849,34.849-34.849
	C68.215,368.208,68.37,368.208,68.525,368.219z"/>
<polygon style="fill:#FD830C;" points="399.126,171.335 394.897,204.546 361.686,204.546 343.775,171.335 "/>
<g>
	<path style="fill:#FE9837;" d="M394.897,204.546l-6.1,47.857c-1.339,10.439-10.65,21.532-20.701,24.642l-35.436,10.982
		c10.705-3.897,20.38-15.742,21.808-26.912l7.218-56.569H394.897z"/>
	<polygon style="fill:#FE9837;" points="70.03,171.335 84.61,204.546 361.686,204.546 365.915,171.335 	"/>
</g>
<g>
	<path style="fill:#FFAD61;" d="M361.686,204.546l-7.218,56.569c-1.428,11.17-11.103,23.015-21.808,26.912l23.79-83.481H361.686z"/>
	<path style="fill:#FFAD61;" d="M356.45,204.546l-23.79,83.481c-0.022,0.011-0.044,0.022-0.066,0.022l-131.193,40.639
		c-30.166,9.343-65.215-6.675-77.912-35.58L84.61,204.546H356.45z"/>
</g>
<path style="fill:#BCC987;" d="M360.525,311.721v142.114c0,0.353-0.322,0.675-0.675,0.675h-19.964c-1.628,0-4.331-1.766-4.986-3.256
	l-50.625-115.321l-16.198,4.411l51.619,117.586c3.301,7.517,11.981,13.185,20.19,13.185h19.964c9.528,0,17.281-7.752,17.281-17.281
	V308.771L360.525,311.721z"/>
<path style="fill:#4D3D36;" d="M68.058,411.361c-3.544,0-6.825-2.286-7.928-5.848c-1.357-4.38,1.094-9.031,5.474-10.387
	L501.24,260.187c4.382-1.359,9.03,1.095,10.387,5.474c1.357,4.38-1.094,9.031-5.474,10.387L70.515,410.987
	C69.698,411.24,68.87,411.361,68.058,411.361z"/>
<path style="fill:#FFE6B8;" d="M235.962,40.906l102.499,130.429h33.211C304.675,72.224,274.486,41.604,235.962,40.906z"/>
<path style="fill:#FFF3DC;" d="M235.962,40.906c29.037,0.941,51.93,31.705,102.499,130.429H97.495
	C165.278,71.039,195.389,40.884,234.578,40.884C235.043,40.884,235.508,40.895,235.962,40.906z"/>
<g>
	<circle style="fill:#FFE6B8;" cx="284.394" cy="137.459" r="8.303"/>
	<circle style="fill:#FFE6B8;" cx="262.254" cy="104.249" r="8.303"/>
	<circle style="fill:#FFE6B8;" cx="184.762" cy="128.603" r="8.303"/>
</g>
<path style="fill:#FD830C;" d="M399.128,179.635H58.961c-4.586,0-8.303-3.717-8.303-8.303s3.716-8.303,8.303-8.303h340.167
	c4.586,0,8.303,3.717,8.303,8.303S403.714,179.635,399.128,179.635z"/>
<g>
</g>
<g>
</g>
<g>
</g>
<g>
</g>
<g>
</g>
<g>
</g>
<g>
</g>
<g>
</g>
<g>
</g>
<g>
</g>
<g>
</g>
<g>
</g>
<g>
</g>
<g>
</g>
<g>
</g>
</svg>
